<svg xmlns="http://www.w3.org/2000/svg" version="1.1" xmlns:xlink="http://www.w3.org/1999/xlink" xmlns:svgjs="http://svgjs.dev/svgjs" width="128" height="128" viewBox="0 0 128 128"><g transform="matrix(0.6204819277108434,0,0,0.6204819277108434,23.80986393441882,12.221576748043624)"><svg viewBox="0 0 74 96" data-background-color="#000000" preserveAspectRatio="xMidYMid meet" height="166" width="128" xmlns="http://www.w3.org/2000/svg" xmlns:xlink="http://www.w3.org/1999/xlink"><g id="tight-bounds" transform="matrix(1,0,0,1,0.44703431389280013,0.2595012833768351)"><svg viewBox="0 0 73.10637624424031 95.481" height="95.481" width="73.10637624424031"><g><svg viewBox="0 0 73.10637624424031 95.481" height="95.481" width="73.10637624424031"><g><svg viewBox="0 0 73.10637624424031 95.481" height="95.481" width="73.10637624424031"><g><svg viewBox="0 0 73.10637624424031 95.481" height="95.481" width="73.10637624424031"><g id="textblocktransform"><svg viewBox="0 0 73.10637624424031 95.481" height="95.481" width="73.10637624424031" id="textblock"><g><svg viewBox="0 0 73.10637624424031 95.481" height="95.481" width="73.10637624424031"><g transform="matrix(1,0,0,1,0,0)"><svg width="73.10637624424031" viewBox="-0.10864202468800002 -36.867542323951994 28.822921552458 37.64254232395199" height="95.481" data-palette-color="#ffffff"><path d="M24.85-17.4L24.85-17.4Q24.8-17.25 24.68-17 24.55-16.75 24.4-16.48 24.25-16.2 24.1-16.03 23.95-15.85 23.9-15.9L23.9-15.9Q23.9-15.9 23.95-16.15 24-16.4 24.08-16.7 24.15-17 24.23-17.28 24.3-17.55 24.3-17.65L24.3-17.65Q25.05-21.65 24.3-24.55 23.55-27.45 21.78-29.3 20-31.15 17.43-32.05 14.85-32.95 12-33L12-33Q9.95-33 7.98-32.68 6-32.35 4.38-31.85 2.75-31.35 1.63-30.75 0.5-30.15 0.2-29.6L0.2-29.6Q-0.15-29 0-29.75L0-29.75Q0.4-31.05 2.13-32.15 3.85-33.25 6.15-33.95 8.45-34.65 10.98-34.88 13.5-35.1 15.55-34.6L15.55-34.6Q16.9-34.3 18.25-33.75 19.6-33.2 20.83-32.43 22.05-31.65 23.08-30.58 24.1-29.5 24.8-28.1L24.8-28.1Q26.15-25.4 26.13-22.53 26.1-19.65 24.85-17.4ZM28.1-17.75L28.1-17.75Q27.15-14.95 25.58-12.7 24-10.45 22.2-8.68 20.4-6.9 18.5-5.6 16.6-4.3 14.95-3.4L14.95-3.4Q14.45-3.15 14.1-3 13.75-2.85 13.75-2.95L13.75-2.95Q13.65-3 14.03-3.28 14.4-3.55 14.8-3.85L14.8-3.85Q17.6-6.1 20.23-8.6 22.85-11.1 24.95-14.3L24.95-14.3Q26-15.95 26.55-17.93 27.1-19.9 27.1-22 27.1-24.1 26.53-26.15 25.95-28.2 24.75-29.95L24.75-29.95Q23.15-32.25 20.88-33.6 18.6-34.95 16-35.48 13.4-36 10.65-35.8 7.9-35.6 5.35-34.85L5.35-34.85Q4.95-34.75 4.88-34.7 4.8-34.65 4.75-34.75L4.75-34.75Q4.7-34.85 4.9-34.95 5.1-35.05 5.25-35.15L5.25-35.15Q6.35-35.75 8.1-36.25 9.85-36.75 12.05-36.85 14.25-36.95 16.75-36.48 19.25-36 21.8-34.65L21.8-34.65Q24.55-33.15 26.08-30.85 27.6-28.55 28.2-26.13 28.8-23.7 28.7-21.43 28.6-19.15 28.1-17.75ZM6.35-0.6L6.35-0.6Q6.1-1 5.73-1.88 5.35-2.75 5.15-3.95L5.15-3.95Q5.05-4.55 5.03-5.3 5-6.05 5.05-6.73 5.1-7.4 5.2-7.85 5.3-8.3 5.5-8.3L5.5-8.3Q5.55-8.3 5.63-8.03 5.7-7.75 5.78-7.4 5.85-7.05 5.88-6.73 5.9-6.4 5.9-6.25L5.9-6.25Q6-4.95 6.23-3.65 6.45-2.35 6.9-1.15L6.9-1.15Q8.65-3.3 10.9-5.5 13.15-7.7 15.3-9.98 17.45-12.25 19.23-14.65 21-17.05 21.8-19.6L21.8-19.6Q22.35-21.35 22.03-23.25 21.7-25.15 20.75-26.7L20.75-26.7Q19.8-28.2 18.05-29.2 16.3-30.2 14.2-30.6L14.2-30.6Q13.35-30.75 12.53-30.85 11.7-30.95 10.8-30.95L10.8-30.95Q10.95-30.2 10.98-29.33 11-28.45 10.95-27.6 10.9-26.75 10.8-25.98 10.7-25.2 10.55-24.6L10.55-24.6Q9.85-21.9 8.9-19.18 7.95-16.45 6.9-13.95L6.9-13.95Q6.8-13.8 6.63-13.48 6.45-13.15 6.35-13.15L6.35-13.15Q6.25-13.15 6.25-13.55 6.25-13.95 6.3-14.1L6.3-14.1Q6.35-14.7 6.5-15.58 6.65-16.45 6.83-17.35 7-18.25 7.2-19.13 7.4-20 7.6-20.6L7.6-20.6Q7.7-20.9 7.98-22.05 8.25-23.2 8.55-24.7 8.85-26.2 9.13-27.88 9.4-29.55 9.5-30.95L9.5-30.95 8.9-30.95Q8.8-29 8.35-26.95 7.9-24.9 7.28-22.83 6.65-20.75 5.98-18.65 5.3-16.55 4.8-14.45L4.8-14.45Q4.7-14 4.53-12.9 4.35-11.8 4.25-10.43 4.15-9.05 4.15-7.53 4.15-6 4.38-4.63 4.6-3.25 5.05-2.15 5.5-1.05 6.35-0.6ZM22.95-18.15L22.95-18.15Q21.85-15.55 19.93-13.15 18-10.75 15.75-8.53 13.5-6.3 11.13-4.3 8.75-2.3 6.8-0.5L6.8-0.5Q6.4-0.15 5.78-0.43 5.15-0.7 4.85-1.1L4.85-1.1Q3.8-2.5 3.3-4.25 2.8-6 2.7-7.88 2.6-9.75 2.83-11.68 3.05-13.6 3.5-15.4L3.5-15.4Q4.5-19.55 5.78-23.43 7.05-27.3 7.65-30.8L7.65-30.8Q4.95-30.5 2.83-29.58 0.7-28.65 0-27.35L0-27.35Q0-27.25-0.08-27.25-0.15-27.25-0.05-27.65L-0.05-27.65Q0.35-29.05 1.9-30.08 3.45-31.1 5.6-31.68 7.75-32.25 10.23-32.35 12.7-32.45 15.05-32.05L15.05-32.05Q17.6-31.6 19.48-30.13 21.35-28.65 22.43-26.68 23.5-24.7 23.68-22.45 23.85-20.2 22.95-18.15ZM12.2-29.5L12.2-29.5Q12.8-28.2 12.68-26.1 12.55-24 12.1-21.73 11.65-19.45 11.08-17.35 10.5-15.25 10.2-13.95L10.2-13.95Q9.6-11.55 8.75-9.15 7.9-6.75 7.35-4.95L7.35-4.95Q7.1-4.25 7-4.25L7-4.25Q6.85-4.25 6.85-4.53 6.85-4.8 6.85-5.05L6.85-5.05Q7-8.75 7.93-12.35 8.85-15.95 9.95-19.65L9.95-19.65Q10.6-21.9 11.2-24.35 11.8-26.8 11.9-29.5L11.9-29.5Q11.9-29.85 12-29.9L12-29.9Q12.05-29.9 12.1-29.75 12.15-29.6 12.2-29.5ZM18.15-8.75L18.15-8.75Q18.2-8.7 17.95-8.35 17.7-8 17.32-7.58 16.95-7.15 16.57-6.73 16.2-6.3 16.05-6.15L16.05-6.15Q15-5.1 13.93-4.03 12.85-2.95 11.7-2.2L11.7-2.2 7.2 0.65Q7.1 0.7 6.93 0.75 6.75 0.8 6.65 0.75L6.65 0.75Q6.55 0.7 6.58 0.6 6.6 0.5 6.65 0.4L6.65 0.4Q6.7 0.3 6.8 0.2L6.8 0.2Q7.65-0.4 8.72-1.3 9.8-2.2 10.95-3.15L10.95-3.15Q11.8-3.8 12.98-4.8 14.15-5.8 15.28-6.7 16.4-7.6 17.23-8.22 18.05-8.85 18.15-8.75Z" opacity="1" transform="matrix(1,0,0,1,0,0)" fill="#ffffff" class="wordmark-text-0" data-fill-palette-color="primary" id="text-0"></path></svg></g></svg></g></svg></g></svg></g></svg></g></svg></g><defs></defs></svg><rect width="73.10637624424031" height="95.481" fill="none" stroke="none" visibility="hidden"></rect></g></svg></g></svg>